<?xml version="1.0" encoding="UTF-8"?>
<svg width="664px" height="110px" viewBox="0 0 664 110" version="1.1" xmlns="http://www.w3.org/2000/svg" xmlns:xlink="http://www.w3.org/1999/xlink">
    <!-- Generator: Sketch 46.2 (44496) - http://www.bohemiancoding.com/sketch -->
    <title>Logo</title>
    <desc>Created with Sketch.</desc>
    <defs></defs>
    <g id="Page-1" stroke="none" stroke-width="1" fill="none" fill-rule="evenodd">
        <g id="Artboard" transform="translate(-55.000000, -55.000000)" fill="#FFFFFF">
            <g id="Logo" transform="translate(55.000000, 55.000000)">
                <path d="M41.9497,70.7998 C45.7827,67.1998 47.6997,61.9668 47.6997,55.0998 C47.6997,48.2348 45.7827,42.9498 41.9497,39.2498 C38.1157,35.5498 32.2327,33.6998 24.2997,33.6998 L15.5997,33.6998 L15.5997,76.1998 L25.4997,76.1998 C32.6327,76.1998 38.1157,74.4008 41.9497,70.7998 M53.3997,29.2498 C60.0657,35.3498 63.3997,43.8338 63.3997,54.6998 C63.3997,65.5678 60.1497,74.1668 53.6497,80.4998 C47.1497,86.8338 37.2327,89.9998 23.8997,89.9998 L-0.0003,89.9998 L-0.0003,20.0998 L24.6997,20.0998 C37.1657,20.0998 46.7327,23.1508 53.3997,29.2498" id="Fill-1"></path>
                <polygon id="Fill-4" points="129.2998 20.0996 129.2998 33.9996 94.4998 33.9996 94.4998 48.4006 125.7998 48.4006 125.7998 61.7006 94.4998 61.7006 94.4998 76.2006 130.3998 76.2006 130.3998 89.9996 78.8998 89.9996 78.8998 20.0996"></polygon>
                <path d="M176.9985,40.9004 L168.1985,61.2004 L185.6985,61.2004 L176.9985,40.9004 Z M198.0985,90.0004 L191.5985,74.9004 L162.2985,74.9004 L155.7985,90.0004 L139.1985,90.0004 L169.3985,20.0994 L184.4985,20.0994 L214.6985,90.0004 L198.0985,90.0004 Z" id="Fill-6"></path>
                <polygon id="Fill-8" points="272.7983 20.0996 272.7983 33.7996 240.3983 33.7996 240.3983 48.9006 271.1983 48.9006 271.1983 62.5996 240.3983 62.5996 240.3983 89.9996 224.7983 89.9996 224.7983 20.0996"></polygon>
                <path d="M645.163599,33.5996 L625.33281,33.5996 L625.33281,89.9996 L609.706761,89.9996 L609.706761,33.5996 L589.875972,33.5996 L589.875972,20.0996 L645.163599,20.0996 L645.163599,33.5996 Z M579.759756,89.9996 L528.177068,89.9996 L528.177068,20.0996 L578.658991,20.0996 L578.658991,33.9996 L543.802115,33.9996 L543.802115,48.4006 L575.153372,48.4006 L575.153372,61.7006 L543.802115,61.7006 L543.802115,76.2006 L579.759756,76.2006 L579.759756,89.9996 Z M512.253543,89.9996 L460.670855,89.9996 L460.670855,20.0996 L511.150775,20.0996 L511.150775,33.9996 L476.294901,33.9996 L476.294901,48.4006 L507.645155,48.4006 L507.645155,61.7006 L476.294901,61.7006 L476.294901,76.2006 L512.253543,76.2006 L512.253543,89.9996 Z M441.441029,89.9996 L425.814981,89.9996 L425.814981,62.4996 L397.970345,62.4996 L397.970345,89.9996 L382.345298,89.9996 L382.345298,20.0996 L397.970345,20.0996 L397.970345,49.2996 L425.814981,49.2996 L425.814981,20.0996 L441.441029,20.0996 L441.441029,89.9996 Z M359.960415,84.9506 C355.252869,88.8496 349.05894,90.7996 341.380631,90.7996 C330.295862,90.7996 320.31286,86.7006 311.432624,78.4996 L320.747556,67.0996 C328.292651,73.7006 335.270837,76.9996 341.681113,76.9996 C344.551715,76.9996 346.805327,76.3846 348.441951,75.1506 C350.077573,73.9166 350.895885,72.2496 350.895885,70.1506 C350.895885,68.0496 350.027492,66.3846 348.29171,65.1506 C346.554926,63.9166 343.116414,62.6666 337.975172,61.4006 C329.828113,59.4666 323.868559,56.9506 320.096513,53.8496 C316.323465,50.7496 314.437441,45.8846 314.437441,39.2496 C314.437441,32.6176 316.824267,27.4996 321.598921,23.9006 C326.372573,20.2996 332.332127,18.4996 339.477581,18.4996 C344.151073,18.4996 348.825566,19.2996 353.500059,20.9006 C358.173551,22.4996 362.247081,24.7676 365.719647,27.7006 L357.806963,39.0996 C351.730222,34.4996 345.45316,32.2006 338.976778,32.2006 C336.372604,32.2006 334.319312,32.8176 332.816904,34.0496 C331.314495,35.2846 330.563291,36.9166 330.563291,38.9506 C330.563291,40.9846 331.480762,42.5996 333.317707,43.7996 C335.15365,44.9996 339.393446,46.4166 346.038097,48.0496 C352.681747,49.6846 357.840016,52.1346 361.512904,55.4006 C365.18479,58.6666 367.021734,63.4346 367.021734,69.7006 C367.021734,75.9666 364.667961,81.0496 359.960415,84.9506 L359.960415,84.9506 Z M293,109.9996 L664,109.9996 L664,-0.0004 L293,-0.0004 L293,109.9996 Z" id="Fill-10"></path>
            </g>
        </g>
    </g>
</svg>